# xmcd CD database file
#
# Track frame offsets:
#	150
#	27149
#	43591
#	65770
#
# Disc length: 1328 seconds
#
# Revision: 0
# Processed by: cddbd v1.5.1PL2 Copyright (c) Steve Scherf et al.
# Submitted via: CDex 1.51
#
DISCID=2f052e04
DTITLE=しらいしりょうこ - 水玉のワンピース
DYEAR=2004
DGENRE=JPop
TTITLE0=水玉のワンピース
TTITLE1=千年の恋〜夜更けのダンス〜
TTITLE2=すず〜Piano version〜
TTITLE3=カメレオン
EXTD=YEAR: 2004
EXTT0=
EXTT1=
EXTT2=
EXTT3=
PLAYORDER=
